<?xml version="1.0" encoding="utf-8"?>
<!-- Generator: Adobe Illustrator 22.1.0, SVG Export Plug-In . SVG Version: 6.00 Build 0)  -->
<svg version="1.1" id="Layer_1" xmlns="http://www.w3.org/2000/svg" xmlns:xlink="http://www.w3.org/1999/xlink" x="0px" y="0px"
	 viewBox="0 0 512 512" style="enable-background:new 0 0 512 512;" xml:space="preserve">
<style type="text/css">
	.st0{fill:#231F20;}
</style>
<g>
	
		<ellipse transform="matrix(0.7071 -0.7071 0.7071 0.7071 -12.5066 193.4464)" class="st0" cx="227.3" cy="111.8" rx="56.9" ry="56.9"/>
	<path class="st0" d="M423.5,90.8c-10.5-8.7-26.1-7.3-34.8,3.2L352,132.4c-34,35.5-91.9,57-127.5,54.2c-10.1-0.8-17.8-0.7-23.9,0
		c-12.2,0.8-22.9,6.8-30,15.8c0,0-0.1,0-0.1,0.1c-20.1,24.6-50.2,140.8-50.8,142c0,0,0.2,0.4,0.5,1.2c-0.3,2-0.4,4-0.4,6.1
		c0,10.8,4.1,20.6,10.8,28c0,0,0,0,0,0c0,0,0,0,0.1,0.1c0,0,0,0,0,0c0.1,0.1,0.2,0.2,0.3,0.3c4.1,4.4,58.2,36.4,70.9,43.9l-64.1,2.1
		c-17.3,0.6-31,14.8-31,32.1c0,17.7,14.4,32,32.1,31.9l168.9-0.4c17.7,0,32-14.4,31.9-32.1l0-5.1c0-5.1-1.2-9.9-3.3-14.2
		c0,0,0,0,0,0c-7.8-28.8-111.6-94.2-111.6-94.2l47.7-96.4c0,0,58.3-27,81.1-39.3c22.7-12.3,73.1-82.8,73.1-82.8
		C435.4,115.1,434,99.5,423.5,90.8z"/>
	<path class="st0" d="M102.6,379.8c-18.1,0-30.9,10-34.4,26.4c-3.5,16.4,5.3,29.8,19.3,33.8c2.3-15.2,18-26.9,39-34
		C126.6,406,110.9,396.7,102.6,379.8z"/>
	<path class="st0" d="M347.2,103.7c10.5-12.3,26.2-31.6,36.1-35.1c-5.9-11.7-22.8-15.1-35.1-9.8C336,64,329.6,78,312.2,111.3
		c-17.4,33.3-27.9,39.2-27.9,39.2C325.7,142.8,336.7,115.9,347.2,103.7z"/>
</g>
</svg>
