<?xml version="1.0" encoding="utf-8"?>
<!-- Generator: Adobe Illustrator 22.1.0, SVG Export Plug-In . SVG Version: 6.00 Build 0)  -->
<svg version="1.1" id="Layer_1" xmlns="http://www.w3.org/2000/svg" xmlns:xlink="http://www.w3.org/1999/xlink" x="0px" y="0px"
	 viewBox="0 0 512 512" style="enable-background:new 0 0 512 512;" xml:space="preserve">
<style type="text/css">
	.st0{fill:#231F20;}
</style>
<g>
	<ellipse transform="matrix(0.444 -0.896 0.896 0.444 77.0812 350.5279)" class="st0" cx="321" cy="113.2" rx="57.1" ry="57.1"/>
	<path class="st0" d="M350.2,199.3c-10.4-6.8-24.4-4-31.2,6.4l-34.1,51.8l-23-69.8c-3.9-11.8-16.6-18.2-28.4-14.4l-2.9,1
		c-11.8,3.9-18.2,16.6-14.4,28.4L253.5,316c3.3,10,12.9,16.2,23,15.4c7.9,0.5,15.8-3,20.4-10.1l59.7-90.8
		C363.4,220.1,360.6,206.1,350.2,199.3z"/>
	<path class="st0" d="M345.6,430.1C345.6,430.1,345.6,430.1,345.6,430.1c-7.8-28.9-112-94.5-112-94.5l3.1-7.3l8.3-15.8l-35.4-107.7
		c-2.5-7.5-1.9-15.5,1.7-22.5s9.6-12.3,17.1-14.7l2.9-1c3-1,6.1-1.5,9.2-1.5c12.8,0,24,8.2,28,20.3l16.6,50.6l6.1-11.7
		c12.6-23.9,3.4-53.5-20.5-66v0c-23.9-12.6-53.5-3.4-66,20.5l-71.4,135.8c-12.2,23.2-3.9,51.8,18.6,64.9c-0.3,0-0.6,0.1-0.9,0.1
		c17.7,11.3,50,30.4,59.5,35.9l-64.3,2.1c-17.3,0.6-31.1,14.8-31.1,32.2c0,17.7,14.5,32.1,32.2,32l169.5-0.4
		c17.7,0,32.1-14.5,32-32.2l0-5.1C349,439.2,347.8,434.4,345.6,430.1z"/>
</g>
</svg>
