<?xml version="1.0" encoding="utf-8"?>
<!-- Generator: Adobe Illustrator 22.1.0, SVG Export Plug-In . SVG Version: 6.00 Build 0)  -->
<svg version="1.1" id="Layer_1" xmlns="http://www.w3.org/2000/svg" xmlns:xlink="http://www.w3.org/1999/xlink" x="0px" y="0px"
	 viewBox="0 0 512 512" style="enable-background:new 0 0 512 512;" xml:space="preserve">
<path d="M512,406v-3.1c-2.3-0.8-26.4-8.9-50.8-12.4c-50.1-7.2-83.8,2.8-103.6,11.9c-27.9,12.8-52.2,37.9-60.8,47.7
	c0,0-1.7,1.7-2.8,3.2c0,0-1.5,2-2.3,2.8c-2.7,3.3-5.9,7.8-9.2,12.6l1.7-184.1c4.4-1.3,9.8-3.9,13.3-6.2c-0.9,5-1.3,10.2-1.3,15.5
	c0.1,48.5,39.5,87.7,88,87.5c48.5-0.1,87.7-39.5,87.5-88c-0.1-45-34-81.9-77.6-87c0.8-1.3,1.3-3.3,0.1-6.2
	c-2.3-5.6-14.2-9.9-23.8-12.5c-10.5-2.9-23.1-4.9-29.9-4.9c-13.1,0-44.8,10.5-51.9,18.4c-2.8,3.1-28.5,40.1-30.2,42.7
	c-50.3,0.8-84.8,6.8-107.7,10.7c-20.9,3.6-33.5,5.8-41.1,1.4C92.9,246.7,33.1,149,33,148.8c-0.6-0.7-1.6-0.8-2.4-0.2
	c-0.7,0.6-0.8,1.6-0.2,2.4c0.7,0.9,60.3,98.4,77.6,108.1c8.7,4.9,21.7,2.7,43.3-1c22.5-3.9,56.2-9.7,105.2-10.6
	c-8.6,16.6-15.5,53.1-15.5,264.6c2.1,0,1.8,0,3.1,0c0.1-120.5,2.8-187.7,6.5-222.2c4.4-0.2,18.1-1,30.5-4.2l-1.8,172.9
	c0,0.2,0,9.2,0.1,15.5c-11.1,17.2-22.2,37.1-22.3,37.3c-0.1,0.2-0.1,0.6-0.1,0.8c0,0,246.2,0,255.2,0
	C512.9,408.7,512.2,501.6,512,406z M250.8,286.4c2.8-24.7,6.3-33.8,9.9-39.8c0.6-0.9,23.9-35.8,30.4-43c6.4-7.1,37.5-17.3,49.4-17.3
	c13.6,0,47.6,7.9,50.6,15.4c0.9,2.2,0.2,3.2,0,3.5c-0.3,0.5-0.8,0.8-1.4,1.1c-2-0.1-4-0.2-6-0.2c-4.5,0-9,0.4-13.3,1
	c0.6-0.8,0.9-1.6,1-2.4c0.1-2.3-0.8-4.1-2.4-5.4c-3.8-3-11.7-2.7-24.1,0.8c-13.4,3.8-29.9,15.7-35.4,20.9c-0.7,0.6-0.7,1.7-0.1,2.4
	c0.3,0.3,0.8,0.5,1.2,0.5c0.4,0,0.8-0.2,1.2-0.5c5.3-5,21.1-16.5,34-20.1c14.6-4.1,19.5-2.6,21.2-1.4c0.8,0.6,1.2,1.5,1.1,2.7
	c0,0.9-2.6,2.8-8.6,4.8c0.4-0.1,0.8-0.1,1.3-0.2c-30.8,8.5-54.8,33.2-62.1,64.4C290,281.9,263,285.9,250.8,286.4z"/>
</svg>
